<svg width="900" height="560" viewBox="0 0 900 560" fill="none" xmlns="http://www.w3.org/2000/svg">
  <rect width="900" height="560" fill="#0F172A"/>
  <rect x="48" y="38" width="804" height="484" rx="32" fill="#020617"/>
  <rect x="84" y="72" width="118" height="18" rx="9" fill="#FFFFFF"/>
  <rect x="500" y="76" width="62" height="10" rx="5" fill="#475569"/>
  <rect x="588" y="76" width="62" height="10" rx="5" fill="#475569"/>
  <rect x="676" y="76" width="62" height="10" rx="5" fill="#475569"/>
  <rect x="84" y="146" width="342" height="286" rx="30" fill="#111827"/>
  <rect x="118" y="184" width="88" height="18" rx="9" fill="#F43F5E"/>
  <text x="118" y="254" fill="#38BDF8" font-family="Inter,Arial" font-size="46" font-weight="900">Smart CRM</text>
  <text x="118" y="308" fill="#FFFFFF" font-family="Inter,Arial" font-size="46" font-weight="900">For Smart Business</text>
  <rect x="118" y="356" width="142" height="42" rx="21" fill="#F43F5E"/>
  <rect x="506" y="150" width="260" height="300" rx="38" fill="#1E1B4B"/>
  <rect x="540" y="190" width="192" height="222" rx="28" fill="#312E81"/>
  <rect x="566" y="222" width="92" height="14" rx="7" fill="#93C5FD"/>
  <rect x="566" y="260" width="140" height="12" rx="6" fill="#6366F1"/>
  <rect x="566" y="292" width="122" height="12" rx="6" fill="#6366F1"/>
  <rect x="566" y="324" width="154" height="12" rx="6" fill="#6366F1"/>
  <path d="M606 384L658 328L712 360L750 288" stroke="#38BDF8" stroke-width="12" stroke-linecap="round" stroke-linejoin="round"/>
  <circle cx="750" cy="190" r="46" fill="#7C3AED"/>
  <path d="M750 170V210M730 190H770" stroke="#FFFFFF" stroke-width="10" stroke-linecap="round"/>
  <circle cx="488" cy="424" r="64" fill="#2563EB" opacity="0.38"/>
  <circle cx="780" cy="436" r="82" fill="#7C3AED" opacity="0.26"/>
</svg>
