<svg width="900" height="560" viewBox="0 0 900 560" fill="none" xmlns="http://www.w3.org/2000/svg">
  <rect width="900" height="560" fill="#EFF6FF"/>
  <rect x="50" y="40" width="800" height="480" rx="32" fill="#0F172A"/>
  <rect x="82" y="72" width="118" height="18" rx="9" fill="#FFFFFF"/>
  <rect x="504" y="76" width="64" height="10" rx="5" fill="#64748B"/>
  <rect x="594" y="76" width="64" height="10" rx="5" fill="#64748B"/>
  <rect x="684" y="76" width="64" height="10" rx="5" fill="#64748B"/>
  <rect x="82" y="136" width="360" height="306" rx="30" fill="#111827"/>
  <rect x="116" y="176" width="90" height="18" rx="9" fill="#F97316"/>
  <text x="116" y="248" fill="#FFFFFF" font-family="Inter,Arial" font-size="42" font-weight="900">BEST EDUCATION</text>
  <text x="116" y="298" fill="#FFFFFF" font-family="Inter,Arial" font-size="42" font-weight="900">FOR A BETTER</text>
  <text x="116" y="348" fill="#FFFFFF" font-family="Inter,Arial" font-size="42" font-weight="900">FUTURE</text>
  <rect x="116" y="384" width="136" height="42" rx="21" fill="#F97316"/>
  <rect x="482" y="126" width="284" height="326" rx="28" fill="#172554"/>
  <circle cx="624" cy="210" r="72" fill="#2563EB"/>
  <path d="M568 350L624 298L680 350V438H568V350Z" fill="#F59E0B"/>
  <rect x="598" y="364" width="52" height="74" rx="12" fill="#1E3A8A"/>
  <path d="M538 236L624 176L710 236L624 268L538 236Z" fill="#FDE68A"/>
  <rect x="608" y="258" width="32" height="74" fill="#FDE68A"/>
  <circle cx="780" cy="138" r="82" fill="#38BDF8" opacity="0.2"/>
</svg>
