<svg width="900" height="560" viewBox="0 0 900 560" fill="none" xmlns="http://www.w3.org/2000/svg">
  <rect width="900" height="560" fill="#E0F2FE"/>
  <rect x="48" y="38" width="804" height="484" rx="32" fill="#FFFFFF"/>
  <rect x="84" y="72" width="118" height="18" rx="9" fill="#0F172A"/>
  <rect x="500" y="76" width="62" height="10" rx="5" fill="#CBD5E1"/>
  <rect x="588" y="76" width="62" height="10" rx="5" fill="#CBD5E1"/>
  <rect x="676" y="76" width="62" height="10" rx="5" fill="#CBD5E1"/>
  <rect x="84" y="144" width="360" height="286" rx="30" fill="#EFF6FF"/>
  <rect x="118" y="182" width="84" height="18" rx="9" fill="#38BDF8"/>
  <text x="118" y="252" fill="#0F172A" font-family="Inter,Arial" font-size="40" font-weight="900">Quality</text>
  <text x="118" y="304" fill="#2563EB" font-family="Inter,Arial" font-size="44" font-weight="900">Healthcare</text>
  <text x="118" y="356" fill="#0F172A" font-family="Inter,Arial" font-size="40" font-weight="900">for Your Family</text>
  <rect x="118" y="388" width="134" height="42" rx="21" fill="#2563EB"/>
  <circle cx="624" cy="252" r="122" fill="#BAE6FD"/>
  <path d="M574 224C574 186 596 160 626 160C656 160 678 186 678 224C678 262 655 292 626 292C597 292 574 262 574 224Z" fill="#F8C7B2"/>
  <path d="M558 324C570 294 592 282 626 282C660 282 684 294 696 324L726 460H528L558 324Z" fill="#FFFFFF"/>
  <path d="M582 326H670V462H582V326Z" fill="#E0F2FE"/>
  <rect x="610" y="348" width="32" height="88" rx="16" fill="#2563EB"/>
  <path d="M580 214C590 170 660 170 672 214C640 198 612 198 580 214Z" fill="#0F172A"/>
  <circle cx="740" cy="146" r="76" fill="#2563EB" opacity="0.1"/>
  <rect x="500" y="410" width="76" height="76" rx="24" fill="#DCFCE7"/>
  <path d="M538 432V464M522 448H554" stroke="#16A34A" stroke-width="12" stroke-linecap="round"/>
</svg>
